<?xml version="1.0" encoding="utf-8"?>
<!-- Generator: Adobe Illustrator 24.1.1, SVG Export Plug-In . SVG Version: 6.00 Build 0)  -->
<svg version="1.1" id="Layer_1" xmlns="http://www.w3.org/2000/svg" xmlns:xlink="http://www.w3.org/1999/xlink" x="0px" y="0px"
	 viewBox="0 0 512 512" style="enable-background:new 0 0 512 512;" xml:space="preserve">
<style type="text/css">
	.st0{fill:#444444;}
</style>
<g>
	<path class="st0" d="M60.7,135.7c0.6-6.3-1.8-12.5-6.4-16.7L6.5,61.4v-8.6h148.4l114.7,251.6L370.5,52.8H512v8.6l-40.9,39.2
		c-3.5,2.7-5.3,7.1-4.5,11.5v288c-0.7,4.4,1,8.8,4.5,11.5l39.9,39.2v8.6H310.3v-8.6l41.4-40.1c4.1-4.1,4.1-5.3,4.1-11.5V166.3
		l-115,292h-15.5l-133.9-292V362c-1.1,8.2,1.6,16.5,7.4,22.5l53.8,65.2v8.6H0v-8.6l53.8-65.2c5.8-6,8.3-14.3,6.9-22.5V135.7z"/>
</g>
</svg>
